<svg xmlns="http://www.w3.org/2000/svg" viewBox="0 0 32 32">
  <defs>
    <linearGradient id="favicon-bg" x1="0" y1="0" x2="1" y2="1">
      <stop offset="0%" stop-color="#f7f0e6" />
      <stop offset="55%" stop-color="#edd8c4" />
      <stop offset="100%" stop-color="#c9d9ea" />
    </linearGradient>
  </defs>
  <rect width="32" height="32" rx="9" fill="url(#favicon-bg)" />
  <g
    transform="translate(4 4)"
    fill="none"
    stroke-linecap="round"
    stroke-linejoin="round"
    stroke-width="2.1"
  >
    <path d="M10 10h4" stroke="#7a4a32" />
    <path d="M19 7V4a1 1 0 0 0-1-1h-2a1 1 0 0 0-1 1v3" stroke="#c45638" />
    <path
      d="M20 21a2 2 0 0 0 2-2v-3.851c0-1.39-2-2.962-2-4.829V8a1 1 0 0 0-1-1h-4a1 1 0 0 0-1 1v11a2 2 0 0 0 2 2z"
      stroke="#a84830"
    />
    <path d="M 22 16 L 2 16" stroke="#6b5a8f" />
    <path
      d="M4 21a2 2 0 0 1-2-2v-3.851c0-1.39 2-2.962 2-4.829V8a1 1 0 0 1 1-1h4a1 1 0 0 1 1 1v11a2 2 0 0 1-2 2z"
      stroke="#4a6fa8"
    />
    <path d="M9 7V4a1 1 0 0 0-1-1H6a1 1 0 0 0-1 1v3" stroke="#3d8a9e" />
  </g>
</svg>
